<svg width="32" height="31" viewBox="0 0 32 31" fill="none" xmlns="http://www.w3.org/2000/svg">
<g clip-path="url(#clip0_3324_338)">
<rect x="0.823853" width="30.3524" height="30.3524" fill="#D3F4E0"/>
<path d="M25.3632 30.3481C25.7048 30.3488 26.0458 30.3488 26.3874 30.3488C27.9114 30.3488 29.4354 30.3466 30.9601 30.3525C31.1269 30.3525 31.1877 30.3064 31.1752 30.1366C31.1438 29.7182 31.1503 29.2954 31.094 28.8806C30.925 27.6362 30.5219 26.4664 29.87 25.391C28.8772 23.7538 27.5595 22.4721 25.7531 21.761C24.4852 21.2621 23.1917 21.1802 21.9055 21.6945C20.8007 22.1363 20.0464 22.9074 19.7398 24.0874C19.5547 24.7992 19.565 25.5256 19.5511 26.2469C19.5262 27.533 19.5438 28.8191 19.5445 30.1052C19.5445 30.3473 19.5452 30.3481 19.7852 30.3481C21.6443 30.3481 23.5041 30.3481 25.3632 30.3481ZM6.63854 30.3481C8.49176 30.3481 10.3457 30.3481 12.1989 30.3481C12.4506 30.3481 12.4521 30.3473 12.4506 30.0993C12.4418 28.637 12.4404 27.1746 12.4177 25.7122C12.4104 25.2579 12.3774 24.7985 12.3028 24.3507C12.0848 23.0383 11.2954 22.1744 10.0845 21.693C8.6915 21.1385 7.31311 21.2906 5.96618 21.8722C4.95067 22.3104 4.08442 22.9652 3.33816 23.7779C1.69858 25.5673 0.841108 27.6706 0.823549 30.1059C0.822086 30.3473 0.823549 30.3481 1.05987 30.3481C2.91967 30.3481 4.77874 30.3481 6.63854 30.3481ZM0.857204 0.01835C7.68697 3.70321 12.0014 9.28282 13.7946 16.8128C13.8114 16.6313 13.8122 16.4528 13.8114 16.2743C13.799 14.2516 13.7917 12.2288 13.7719 10.206C13.7617 9.16357 13.6578 8.12915 13.4888 7.09984C13.3403 6.1971 13.1281 5.31264 12.8215 4.45087C12.2582 2.86851 11.4124 1.44855 10.3516 0.150762C10.2652 0.0461493 10.1811 6.10352e-05 10.045 6.10352e-05C7.04606 0.00371883 4.04711 0.00298727 1.04816 0.00371883C0.991093 0.00371883 0.934757 0.0124975 0.856473 0.0190816L0.857204 0.01835ZM31.1328 0.0234709C31.0684 0.0146922 31.023 0.00298727 30.9769 0.00298727C27.9604 0.00225571 24.9432 0.00152415 21.9267 0.00810819C21.8396 0.00810819 21.7262 0.0651698 21.6699 0.133205C19.9271 2.21376 18.8699 4.60303 18.4697 7.28493C18.2773 8.57613 18.1983 9.87611 18.1881 11.1798C18.1734 12.9896 18.1837 14.7995 18.1837 16.6094C18.1837 16.6767 18.1837 16.744 18.1837 16.8113C19.9959 9.28428 24.3059 3.70834 31.1328 0.0234709ZM19.9074 18.3995C19.9213 18.4105 19.9352 18.4215 19.9491 18.4324C19.9784 18.4149 20.0098 18.4002 20.0369 18.3798C21.367 17.387 22.85 16.7762 24.5006 16.5706C25.519 16.4433 26.5294 16.4726 27.5324 16.6884C28.8889 16.9803 29.9885 17.6855 30.8496 18.7689C30.944 18.8875 31.0347 19.0096 31.1525 19.1625V8.97629C27.8902 9.64787 25.1437 11.1805 22.8983 13.6027C21.5931 15.0102 20.598 16.6123 19.9074 18.3995ZM12.0497 18.4332L12.087 18.4039C11.6692 17.2875 11.1088 16.2429 10.4269 15.264C8.69296 12.7753 6.42198 10.9515 3.61399 9.80222C2.7214 9.43718 1.80101 9.16357 0.847693 8.9858V19.1581C1.02328 18.9321 1.16376 18.7338 1.32252 18.5509C2.39729 17.3161 3.77641 16.6855 5.38819 16.537C6.35101 16.4477 7.30872 16.4923 8.25837 16.6957C9.35289 16.9298 10.375 17.338 11.318 17.9401C11.5661 18.0981 11.8068 18.2693 12.0511 18.4339L12.0497 18.4332Z" fill="white"/>
<path d="M25.3633 30.348C23.5043 30.348 21.6445 30.348 19.7854 30.348C19.5454 30.348 19.5447 30.3465 19.5447 30.1051C19.5447 28.819 19.5264 27.5322 19.5513 26.2468C19.5652 25.5255 19.5549 24.7991 19.74 24.0873C20.0466 22.9073 20.8009 22.1362 21.9057 21.6943C23.1919 21.1801 24.4854 21.262 25.7533 21.7609C27.5597 22.472 28.8774 23.7537 29.8702 25.3909C30.5221 26.4663 30.9252 27.6353 31.0942 28.8805C31.1505 29.2952 31.1439 29.7181 31.1754 30.1365C31.1886 30.3063 31.1279 30.3531 30.9603 30.3523C29.4363 30.3465 27.9123 30.3487 26.3876 30.3487C26.046 30.3487 25.705 30.3487 25.3633 30.3487V30.348Z" fill="#00481D"/>
<path d="M25.3633 30.348C23.5043 30.348 21.6445 30.348 19.7854 30.348C19.5454 30.348 19.5447 30.3465 19.5447 30.1051C19.5447 28.819 19.5264 27.5322 19.5513 26.2468C19.5652 25.5255 19.5549 24.7991 19.74 24.0873C20.0466 22.9073 20.8009 22.1362 21.9057 21.6943C23.1919 21.1801 24.4854 21.262 25.7533 21.7609C27.5597 22.472 28.8774 23.7537 29.8702 25.3909C30.5221 26.4663 30.9252 27.6353 31.0942 28.8805C31.1505 29.2952 31.1439 29.7181 31.1754 30.1365C31.1886 30.3063 31.1279 30.3531 30.9603 30.3523C29.4363 30.3465 27.9123 30.3487 26.3876 30.3487C26.046 30.3487 25.705 30.3487 25.3633 30.3487V30.348Z" fill="black" fill-opacity="0.2"/>
<path d="M25.3633 30.348C23.5043 30.348 21.6445 30.348 19.7854 30.348C19.5454 30.348 19.5447 30.3465 19.5447 30.1051C19.5447 28.819 19.5264 27.5322 19.5513 26.2468C19.5652 25.5255 19.5549 24.7991 19.74 24.0873C20.0466 22.9073 20.8009 22.1362 21.9057 21.6943C23.1919 21.1801 24.4854 21.262 25.7533 21.7609C27.5597 22.472 28.8774 23.7537 29.8702 25.3909C30.5221 26.4663 30.9252 27.6353 31.0942 28.8805C31.1505 29.2952 31.1439 29.7181 31.1754 30.1365C31.1886 30.3063 31.1279 30.3531 30.9603 30.3523C29.4363 30.3465 27.9123 30.3487 26.3876 30.3487C26.046 30.3487 25.705 30.3487 25.3633 30.3487V30.348Z" fill="black" fill-opacity="0.2"/>
<path d="M25.3633 30.348C23.5043 30.348 21.6445 30.348 19.7854 30.348C19.5454 30.348 19.5447 30.3465 19.5447 30.1051C19.5447 28.819 19.5264 27.5322 19.5513 26.2468C19.5652 25.5255 19.5549 24.7991 19.74 24.0873C20.0466 22.9073 20.8009 22.1362 21.9057 21.6943C23.1919 21.1801 24.4854 21.262 25.7533 21.7609C27.5597 22.472 28.8774 23.7537 29.8702 25.3909C30.5221 26.4663 30.9252 27.6353 31.0942 28.8805C31.1505 29.2952 31.1439 29.7181 31.1754 30.1365C31.1886 30.3063 31.1279 30.3531 30.9603 30.3523C29.4363 30.3465 27.9123 30.3487 26.3876 30.3487C26.046 30.3487 25.705 30.3487 25.3633 30.3487V30.348Z" fill="black" fill-opacity="0.2"/>
<path d="M25.3633 30.348C23.5043 30.348 21.6445 30.348 19.7854 30.348C19.5454 30.348 19.5447 30.3465 19.5447 30.1051C19.5447 28.819 19.5264 27.5322 19.5513 26.2468C19.5652 25.5255 19.5549 24.7991 19.74 24.0873C20.0466 22.9073 20.8009 22.1362 21.9057 21.6943C23.1919 21.1801 24.4854 21.262 25.7533 21.7609C27.5597 22.472 28.8774 23.7537 29.8702 25.3909C30.5221 26.4663 30.9252 27.6353 31.0942 28.8805C31.1505 29.2952 31.1439 29.7181 31.1754 30.1365C31.1886 30.3063 31.1279 30.3531 30.9603 30.3523C29.4363 30.3465 27.9123 30.3487 26.3876 30.3487C26.046 30.3487 25.705 30.3487 25.3633 30.3487V30.348Z" fill="black" fill-opacity="0.2"/>
<path d="M25.3633 30.348C23.5043 30.348 21.6445 30.348 19.7854 30.348C19.5454 30.348 19.5447 30.3465 19.5447 30.1051C19.5447 28.819 19.5264 27.5322 19.5513 26.2468C19.5652 25.5255 19.5549 24.7991 19.74 24.0873C20.0466 22.9073 20.8009 22.1362 21.9057 21.6943C23.1919 21.1801 24.4854 21.262 25.7533 21.7609C27.5597 22.472 28.8774 23.7537 29.8702 25.3909C30.5221 26.4663 30.9252 27.6353 31.0942 28.8805C31.1505 29.2952 31.1439 29.7181 31.1754 30.1365C31.1886 30.3063 31.1279 30.3531 30.9603 30.3523C29.4363 30.3465 27.9123 30.3487 26.3876 30.3487C26.046 30.3487 25.705 30.3487 25.3633 30.3487V30.348Z" fill="black" fill-opacity="0.2"/>
<path d="M25.3633 30.348C23.5043 30.348 21.6445 30.348 19.7854 30.348C19.5454 30.348 19.5447 30.3465 19.5447 30.1051C19.5447 28.819 19.5264 27.5322 19.5513 26.2468C19.5652 25.5255 19.5549 24.7991 19.74 24.0873C20.0466 22.9073 20.8009 22.1362 21.9057 21.6943C23.1919 21.1801 24.4854 21.262 25.7533 21.7609C27.5597 22.472 28.8774 23.7537 29.8702 25.3909C30.5221 26.4663 30.9252 27.6353 31.0942 28.8805C31.1505 29.2952 31.1439 29.7181 31.1754 30.1365C31.1886 30.3063 31.1279 30.3531 30.9603 30.3523C29.4363 30.3465 27.9123 30.3487 26.3876 30.3487C26.046 30.3487 25.705 30.3487 25.3633 30.3487V30.348Z" fill="black" fill-opacity="0.2"/>
<path d="M25.3633 30.348C23.5043 30.348 21.6445 30.348 19.7854 30.348C19.5454 30.348 19.5447 30.3465 19.5447 30.1051C19.5447 28.819 19.5264 27.5322 19.5513 26.2468C19.5652 25.5255 19.5549 24.7991 19.74 24.0873C20.0466 22.9073 20.8009 22.1362 21.9057 21.6943C23.1919 21.1801 24.4854 21.262 25.7533 21.7609C27.5597 22.472 28.8774 23.7537 29.8702 25.3909C30.5221 26.4663 30.9252 27.6353 31.0942 28.8805C31.1505 29.2952 31.1439 29.7181 31.1754 30.1365C31.1886 30.3063 31.1279 30.3531 30.9603 30.3523C29.4363 30.3465 27.9123 30.3487 26.3876 30.3487C26.046 30.3487 25.705 30.3487 25.3633 30.3487V30.348Z" fill="black" fill-opacity="0.2"/>
<path d="M25.3633 30.348C23.5043 30.348 21.6445 30.348 19.7854 30.348C19.5454 30.348 19.5447 30.3465 19.5447 30.1051C19.5447 28.819 19.5264 27.5322 19.5513 26.2468C19.5652 25.5255 19.5549 24.7991 19.74 24.0873C20.0466 22.9073 20.8009 22.1362 21.9057 21.6943C23.1919 21.1801 24.4854 21.262 25.7533 21.7609C27.5597 22.472 28.8774 23.7537 29.8702 25.3909C30.5221 26.4663 30.9252 27.6353 31.0942 28.8805C31.1505 29.2952 31.1439 29.7181 31.1754 30.1365C31.1886 30.3063 31.1279 30.3531 30.9603 30.3523C29.4363 30.3465 27.9123 30.3487 26.3876 30.3487C26.046 30.3487 25.705 30.3487 25.3633 30.3487V30.348Z" fill="black" fill-opacity="0.2"/>
<path d="M25.3633 30.348C23.5043 30.348 21.6445 30.348 19.7854 30.348C19.5454 30.348 19.5447 30.3465 19.5447 30.1051C19.5447 28.819 19.5264 27.5322 19.5513 26.2468C19.5652 25.5255 19.5549 24.7991 19.74 24.0873C20.0466 22.9073 20.8009 22.1362 21.9057 21.6943C23.1919 21.1801 24.4854 21.262 25.7533 21.7609C27.5597 22.472 28.8774 23.7537 29.8702 25.3909C30.5221 26.4663 30.9252 27.6353 31.0942 28.8805C31.1505 29.2952 31.1439 29.7181 31.1754 30.1365C31.1886 30.3063 31.1279 30.3531 30.9603 30.3523C29.4363 30.3465 27.9123 30.3487 26.3876 30.3487C26.046 30.3487 25.705 30.3487 25.3633 30.3487V30.348Z" fill="black" fill-opacity="0.2"/>
<path d="M25.3633 30.348C23.5043 30.348 21.6445 30.348 19.7854 30.348C19.5454 30.348 19.5447 30.3465 19.5447 30.1051C19.5447 28.819 19.5264 27.5322 19.5513 26.2468C19.5652 25.5255 19.5549 24.7991 19.74 24.0873C20.0466 22.9073 20.8009 22.1362 21.9057 21.6943C23.1919 21.1801 24.4854 21.262 25.7533 21.7609C27.5597 22.472 28.8774 23.7537 29.8702 25.3909C30.5221 26.4663 30.9252 27.6353 31.0942 28.8805C31.1505 29.2952 31.1439 29.7181 31.1754 30.1365C31.1886 30.3063 31.1279 30.3531 30.9603 30.3523C29.4363 30.3465 27.9123 30.3487 26.3876 30.3487C26.046 30.3487 25.705 30.3487 25.3633 30.3487V30.348Z" fill="black" fill-opacity="0.2"/>
<path d="M6.63881 30.3489C4.779 30.3489 2.91993 30.3489 1.06013 30.3489C0.823811 30.3489 0.821616 30.3481 0.823811 30.1067C0.84137 27.6713 1.69811 25.5681 3.33916 23.7787C4.08469 22.9652 4.95167 22.3112 5.96717 21.873C7.3141 21.2914 8.69249 21.1393 10.0855 21.6938C11.2964 22.1759 12.0851 23.0391 12.3038 24.3515C12.3784 24.7992 12.4114 25.2587 12.4187 25.713C12.4414 27.1753 12.4428 28.6377 12.4516 30.1001C12.4531 30.3481 12.4516 30.3489 12.1999 30.3489C10.3467 30.3489 8.49276 30.3489 6.63954 30.3489H6.63881Z" fill="#00481D"/>
<path d="M6.63881 30.3489C4.779 30.3489 2.91993 30.3489 1.06013 30.3489C0.823811 30.3489 0.821616 30.3481 0.823811 30.1067C0.84137 27.6713 1.69811 25.5681 3.33916 23.7787C4.08469 22.9652 4.95167 22.3112 5.96717 21.873C7.3141 21.2914 8.69249 21.1393 10.0855 21.6938C11.2964 22.1759 12.0851 23.0391 12.3038 24.3515C12.3784 24.7992 12.4114 25.2587 12.4187 25.713C12.4414 27.1753 12.4428 28.6377 12.4516 30.1001C12.4531 30.3481 12.4516 30.3489 12.1999 30.3489C10.3467 30.3489 8.49276 30.3489 6.63954 30.3489H6.63881Z" fill="black" fill-opacity="0.2"/>
<path d="M6.63881 30.3489C4.779 30.3489 2.91993 30.3489 1.06013 30.3489C0.823811 30.3489 0.821616 30.3481 0.823811 30.1067C0.84137 27.6713 1.69811 25.5681 3.33916 23.7787C4.08469 22.9652 4.95167 22.3112 5.96717 21.873C7.3141 21.2914 8.69249 21.1393 10.0855 21.6938C11.2964 22.1759 12.0851 23.0391 12.3038 24.3515C12.3784 24.7992 12.4114 25.2587 12.4187 25.713C12.4414 27.1753 12.4428 28.6377 12.4516 30.1001C12.4531 30.3481 12.4516 30.3489 12.1999 30.3489C10.3467 30.3489 8.49276 30.3489 6.63954 30.3489H6.63881Z" fill="black" fill-opacity="0.2"/>
<path d="M6.63881 30.3489C4.779 30.3489 2.91993 30.3489 1.06013 30.3489C0.823811 30.3489 0.821616 30.3481 0.823811 30.1067C0.84137 27.6713 1.69811 25.5681 3.33916 23.7787C4.08469 22.9652 4.95167 22.3112 5.96717 21.873C7.3141 21.2914 8.69249 21.1393 10.0855 21.6938C11.2964 22.1759 12.0851 23.0391 12.3038 24.3515C12.3784 24.7992 12.4114 25.2587 12.4187 25.713C12.4414 27.1753 12.4428 28.6377 12.4516 30.1001C12.4531 30.3481 12.4516 30.3489 12.1999 30.3489C10.3467 30.3489 8.49276 30.3489 6.63954 30.3489H6.63881Z" fill="black" fill-opacity="0.2"/>
<path d="M6.63881 30.3489C4.779 30.3489 2.91993 30.3489 1.06013 30.3489C0.823811 30.3489 0.821616 30.3481 0.823811 30.1067C0.84137 27.6713 1.69811 25.5681 3.33916 23.7787C4.08469 22.9652 4.95167 22.3112 5.96717 21.873C7.3141 21.2914 8.69249 21.1393 10.0855 21.6938C11.2964 22.1759 12.0851 23.0391 12.3038 24.3515C12.3784 24.7992 12.4114 25.2587 12.4187 25.713C12.4414 27.1753 12.4428 28.6377 12.4516 30.1001C12.4531 30.3481 12.4516 30.3489 12.1999 30.3489C10.3467 30.3489 8.49276 30.3489 6.63954 30.3489H6.63881Z" fill="black" fill-opacity="0.2"/>
<path d="M6.63881 30.3489C4.779 30.3489 2.91993 30.3489 1.06013 30.3489C0.823811 30.3489 0.821616 30.3481 0.823811 30.1067C0.84137 27.6713 1.69811 25.5681 3.33916 23.7787C4.08469 22.9652 4.95167 22.3112 5.96717 21.873C7.3141 21.2914 8.69249 21.1393 10.0855 21.6938C11.2964 22.1759 12.0851 23.0391 12.3038 24.3515C12.3784 24.7992 12.4114 25.2587 12.4187 25.713C12.4414 27.1753 12.4428 28.6377 12.4516 30.1001C12.4531 30.3481 12.4516 30.3489 12.1999 30.3489C10.3467 30.3489 8.49276 30.3489 6.63954 30.3489H6.63881Z" fill="black" fill-opacity="0.2"/>
<path d="M6.63881 30.3489C4.779 30.3489 2.91993 30.3489 1.06013 30.3489C0.823811 30.3489 0.821616 30.3481 0.823811 30.1067C0.84137 27.6713 1.69811 25.5681 3.33916 23.7787C4.08469 22.9652 4.95167 22.3112 5.96717 21.873C7.3141 21.2914 8.69249 21.1393 10.0855 21.6938C11.2964 22.1759 12.0851 23.0391 12.3038 24.3515C12.3784 24.7992 12.4114 25.2587 12.4187 25.713C12.4414 27.1753 12.4428 28.6377 12.4516 30.1001C12.4531 30.3481 12.4516 30.3489 12.1999 30.3489C10.3467 30.3489 8.49276 30.3489 6.63954 30.3489H6.63881Z" fill="black" fill-opacity="0.2"/>
<path d="M6.63881 30.3489C4.779 30.3489 2.91993 30.3489 1.06013 30.3489C0.823811 30.3489 0.821616 30.3481 0.823811 30.1067C0.84137 27.6713 1.69811 25.5681 3.33916 23.7787C4.08469 22.9652 4.95167 22.3112 5.96717 21.873C7.3141 21.2914 8.69249 21.1393 10.0855 21.6938C11.2964 22.1759 12.0851 23.0391 12.3038 24.3515C12.3784 24.7992 12.4114 25.2587 12.4187 25.713C12.4414 27.1753 12.4428 28.6377 12.4516 30.1001C12.4531 30.3481 12.4516 30.3489 12.1999 30.3489C10.3467 30.3489 8.49276 30.3489 6.63954 30.3489H6.63881Z" fill="black" fill-opacity="0.2"/>
<path d="M6.63881 30.3489C4.779 30.3489 2.91993 30.3489 1.06013 30.3489C0.823811 30.3489 0.821616 30.3481 0.823811 30.1067C0.84137 27.6713 1.69811 25.5681 3.33916 23.7787C4.08469 22.9652 4.95167 22.3112 5.96717 21.873C7.3141 21.2914 8.69249 21.1393 10.0855 21.6938C11.2964 22.1759 12.0851 23.0391 12.3038 24.3515C12.3784 24.7992 12.4114 25.2587 12.4187 25.713C12.4414 27.1753 12.4428 28.6377 12.4516 30.1001C12.4531 30.3481 12.4516 30.3489 12.1999 30.3489C10.3467 30.3489 8.49276 30.3489 6.63954 30.3489H6.63881Z" fill="black" fill-opacity="0.2"/>
<path d="M6.63881 30.3489C4.779 30.3489 2.91993 30.3489 1.06013 30.3489C0.823811 30.3489 0.821616 30.3481 0.823811 30.1067C0.84137 27.6713 1.69811 25.5681 3.33916 23.7787C4.08469 22.9652 4.95167 22.3112 5.96717 21.873C7.3141 21.2914 8.69249 21.1393 10.0855 21.6938C11.2964 22.1759 12.0851 23.0391 12.3038 24.3515C12.3784 24.7992 12.4114 25.2587 12.4187 25.713C12.4414 27.1753 12.4428 28.6377 12.4516 30.1001C12.4531 30.3481 12.4516 30.3489 12.1999 30.3489C10.3467 30.3489 8.49276 30.3489 6.63954 30.3489H6.63881Z" fill="black" fill-opacity="0.2"/>
<path d="M6.63881 30.3489C4.779 30.3489 2.91993 30.3489 1.06013 30.3489C0.823811 30.3489 0.821616 30.3481 0.823811 30.1067C0.84137 27.6713 1.69811 25.5681 3.33916 23.7787C4.08469 22.9652 4.95167 22.3112 5.96717 21.873C7.3141 21.2914 8.69249 21.1393 10.0855 21.6938C11.2964 22.1759 12.0851 23.0391 12.3038 24.3515C12.3784 24.7992 12.4114 25.2587 12.4187 25.713C12.4414 27.1753 12.4428 28.6377 12.4516 30.1001C12.4531 30.3481 12.4516 30.3489 12.1999 30.3489C10.3467 30.3489 8.49276 30.3489 6.63954 30.3489H6.63881Z" fill="black" fill-opacity="0.2"/>
<path d="M0.857788 0.018289C0.935341 0.0124365 0.992408 0.0036578 1.04874 0.0036578C4.04769 0.00292624 7.04665 0.0036578 10.0456 0C10.1824 0 10.2665 0.0460882 10.3521 0.150701C11.413 1.44849 12.2588 2.86844 12.8221 4.45081C13.1287 5.31258 13.3409 6.19704 13.4894 7.09978C13.6584 8.12909 13.7623 9.16424 13.7725 10.206C13.7923 12.2287 13.7996 14.2515 13.812 16.2743C13.8128 16.4528 13.812 16.6313 13.7952 16.8127C12.002 9.28276 7.68682 3.70315 0.857788 0.018289Z" fill="#00481D"/>
<path d="M0.857788 0.018289C0.935341 0.0124365 0.992408 0.0036578 1.04874 0.0036578C4.04769 0.00292624 7.04665 0.0036578 10.0456 0C10.1824 0 10.2665 0.0460882 10.3521 0.150701C11.413 1.44849 12.2588 2.86844 12.8221 4.45081C13.1287 5.31258 13.3409 6.19704 13.4894 7.09978C13.6584 8.12909 13.7623 9.16424 13.7725 10.206C13.7923 12.2287 13.7996 14.2515 13.812 16.2743C13.8128 16.4528 13.812 16.6313 13.7952 16.8127C12.002 9.28276 7.68682 3.70315 0.857788 0.018289Z" fill="black" fill-opacity="0.2"/>
<path d="M0.857788 0.018289C0.935341 0.0124365 0.992408 0.0036578 1.04874 0.0036578C4.04769 0.00292624 7.04665 0.0036578 10.0456 0C10.1824 0 10.2665 0.0460882 10.3521 0.150701C11.413 1.44849 12.2588 2.86844 12.8221 4.45081C13.1287 5.31258 13.3409 6.19704 13.4894 7.09978C13.6584 8.12909 13.7623 9.16424 13.7725 10.206C13.7923 12.2287 13.7996 14.2515 13.812 16.2743C13.8128 16.4528 13.812 16.6313 13.7952 16.8127C12.002 9.28276 7.68682 3.70315 0.857788 0.018289Z" fill="black" fill-opacity="0.2"/>
<path d="M0.857788 0.018289C0.935341 0.0124365 0.992408 0.0036578 1.04874 0.0036578C4.04769 0.00292624 7.04665 0.0036578 10.0456 0C10.1824 0 10.2665 0.0460882 10.3521 0.150701C11.413 1.44849 12.2588 2.86844 12.8221 4.45081C13.1287 5.31258 13.3409 6.19704 13.4894 7.09978C13.6584 8.12909 13.7623 9.16424 13.7725 10.206C13.7923 12.2287 13.7996 14.2515 13.812 16.2743C13.8128 16.4528 13.812 16.6313 13.7952 16.8127C12.002 9.28276 7.68682 3.70315 0.857788 0.018289Z" fill="black" fill-opacity="0.2"/>
<path d="M0.857788 0.018289C0.935341 0.0124365 0.992408 0.0036578 1.04874 0.0036578C4.04769 0.00292624 7.04665 0.0036578 10.0456 0C10.1824 0 10.2665 0.0460882 10.3521 0.150701C11.413 1.44849 12.2588 2.86844 12.8221 4.45081C13.1287 5.31258 13.3409 6.19704 13.4894 7.09978C13.6584 8.12909 13.7623 9.16424 13.7725 10.206C13.7923 12.2287 13.7996 14.2515 13.812 16.2743C13.8128 16.4528 13.812 16.6313 13.7952 16.8127C12.002 9.28276 7.68682 3.70315 0.857788 0.018289Z" fill="black" fill-opacity="0.2"/>
<path d="M0.857788 0.018289C0.935341 0.0124365 0.992408 0.0036578 1.04874 0.0036578C4.04769 0.00292624 7.04665 0.0036578 10.0456 0C10.1824 0 10.2665 0.0460882 10.3521 0.150701C11.413 1.44849 12.2588 2.86844 12.8221 4.45081C13.1287 5.31258 13.3409 6.19704 13.4894 7.09978C13.6584 8.12909 13.7623 9.16424 13.7725 10.206C13.7923 12.2287 13.7996 14.2515 13.812 16.2743C13.8128 16.4528 13.812 16.6313 13.7952 16.8127C12.002 9.28276 7.68682 3.70315 0.857788 0.018289Z" fill="black" fill-opacity="0.2"/>
<path d="M0.857788 0.018289C0.935341 0.0124365 0.992408 0.0036578 1.04874 0.0036578C4.04769 0.00292624 7.04665 0.0036578 10.0456 0C10.1824 0 10.2665 0.0460882 10.3521 0.150701C11.413 1.44849 12.2588 2.86844 12.8221 4.45081C13.1287 5.31258 13.3409 6.19704 13.4894 7.09978C13.6584 8.12909 13.7623 9.16424 13.7725 10.206C13.7923 12.2287 13.7996 14.2515 13.812 16.2743C13.8128 16.4528 13.812 16.6313 13.7952 16.8127C12.002 9.28276 7.68682 3.70315 0.857788 0.018289Z" fill="black" fill-opacity="0.2"/>
<path d="M0.857788 0.018289C0.935341 0.0124365 0.992408 0.0036578 1.04874 0.0036578C4.04769 0.00292624 7.04665 0.0036578 10.0456 0C10.1824 0 10.2665 0.0460882 10.3521 0.150701C11.413 1.44849 12.2588 2.86844 12.8221 4.45081C13.1287 5.31258 13.3409 6.19704 13.4894 7.09978C13.6584 8.12909 13.7623 9.16424 13.7725 10.206C13.7923 12.2287 13.7996 14.2515 13.812 16.2743C13.8128 16.4528 13.812 16.6313 13.7952 16.8127C12.002 9.28276 7.68682 3.70315 0.857788 0.018289Z" fill="black" fill-opacity="0.2"/>
<path d="M0.857788 0.018289C0.935341 0.0124365 0.992408 0.0036578 1.04874 0.0036578C4.04769 0.00292624 7.04665 0.0036578 10.0456 0C10.1824 0 10.2665 0.0460882 10.3521 0.150701C11.413 1.44849 12.2588 2.86844 12.8221 4.45081C13.1287 5.31258 13.3409 6.19704 13.4894 7.09978C13.6584 8.12909 13.7623 9.16424 13.7725 10.206C13.7923 12.2287 13.7996 14.2515 13.812 16.2743C13.8128 16.4528 13.812 16.6313 13.7952 16.8127C12.002 9.28276 7.68682 3.70315 0.857788 0.018289Z" fill="black" fill-opacity="0.2"/>
<path d="M0.857788 0.018289C0.935341 0.0124365 0.992408 0.0036578 1.04874 0.0036578C4.04769 0.00292624 7.04665 0.0036578 10.0456 0C10.1824 0 10.2665 0.0460882 10.3521 0.150701C11.413 1.44849 12.2588 2.86844 12.8221 4.45081C13.1287 5.31258 13.3409 6.19704 13.4894 7.09978C13.6584 8.12909 13.7623 9.16424 13.7725 10.206C13.7923 12.2287 13.7996 14.2515 13.812 16.2743C13.8128 16.4528 13.812 16.6313 13.7952 16.8127C12.002 9.28276 7.68682 3.70315 0.857788 0.018289Z" fill="black" fill-opacity="0.2"/>
<path d="M0.857788 0.018289C0.935341 0.0124365 0.992408 0.0036578 1.04874 0.0036578C4.04769 0.00292624 7.04665 0.0036578 10.0456 0C10.1824 0 10.2665 0.0460882 10.3521 0.150701C11.413 1.44849 12.2588 2.86844 12.8221 4.45081C13.1287 5.31258 13.3409 6.19704 13.4894 7.09978C13.6584 8.12909 13.7623 9.16424 13.7725 10.206C13.7923 12.2287 13.7996 14.2515 13.812 16.2743C13.8128 16.4528 13.812 16.6313 13.7952 16.8127C12.002 9.28276 7.68682 3.70315 0.857788 0.018289Z" fill="black" fill-opacity="0.2"/>
<path d="M31.133 0.0235098C24.3062 3.70837 19.9962 9.28432 18.1832 16.8113C18.1832 16.744 18.1832 16.6767 18.1832 16.6094C18.1832 14.7995 18.1729 12.9897 18.1876 11.1798C18.1978 9.87688 18.2768 8.57617 18.4692 7.28497C18.8694 4.60307 19.9266 2.2138 21.6694 0.133244C21.7265 0.0652087 21.8391 0.00814707 21.9262 0.00814707C24.9427 0.00156304 27.9599 0.0022946 30.9765 0.00302616C31.0218 0.00302616 31.0679 0.0147311 31.1323 0.0235098H31.133Z" fill="#00481D"/>
<path d="M31.133 0.0235098C24.3062 3.70837 19.9962 9.28432 18.1832 16.8113C18.1832 16.744 18.1832 16.6767 18.1832 16.6094C18.1832 14.7995 18.1729 12.9897 18.1876 11.1798C18.1978 9.87688 18.2768 8.57617 18.4692 7.28497C18.8694 4.60307 19.9266 2.2138 21.6694 0.133244C21.7265 0.0652087 21.8391 0.00814707 21.9262 0.00814707C24.9427 0.00156304 27.9599 0.0022946 30.9765 0.00302616C31.0218 0.00302616 31.0679 0.0147311 31.1323 0.0235098H31.133Z" fill="black" fill-opacity="0.2"/>
<path d="M31.133 0.0235098C24.3062 3.70837 19.9962 9.28432 18.1832 16.8113C18.1832 16.744 18.1832 16.6767 18.1832 16.6094C18.1832 14.7995 18.1729 12.9897 18.1876 11.1798C18.1978 9.87688 18.2768 8.57617 18.4692 7.28497C18.8694 4.60307 19.9266 2.2138 21.6694 0.133244C21.7265 0.0652087 21.8391 0.00814707 21.9262 0.00814707C24.9427 0.00156304 27.9599 0.0022946 30.9765 0.00302616C31.0218 0.00302616 31.0679 0.0147311 31.1323 0.0235098H31.133Z" fill="black" fill-opacity="0.2"/>
<path d="M31.133 0.0235098C24.3062 3.70837 19.9962 9.28432 18.1832 16.8113C18.1832 16.744 18.1832 16.6767 18.1832 16.6094C18.1832 14.7995 18.1729 12.9897 18.1876 11.1798C18.1978 9.87688 18.2768 8.57617 18.4692 7.28497C18.8694 4.60307 19.9266 2.2138 21.6694 0.133244C21.7265 0.0652087 21.8391 0.00814707 21.9262 0.00814707C24.9427 0.00156304 27.9599 0.0022946 30.9765 0.00302616C31.0218 0.00302616 31.0679 0.0147311 31.1323 0.0235098H31.133Z" fill="black" fill-opacity="0.2"/>
<path d="M31.133 0.0235098C24.3062 3.70837 19.9962 9.28432 18.1832 16.8113C18.1832 16.744 18.1832 16.6767 18.1832 16.6094C18.1832 14.7995 18.1729 12.9897 18.1876 11.1798C18.1978 9.87688 18.2768 8.57617 18.4692 7.28497C18.8694 4.60307 19.9266 2.2138 21.6694 0.133244C21.7265 0.0652087 21.8391 0.00814707 21.9262 0.00814707C24.9427 0.00156304 27.9599 0.0022946 30.9765 0.00302616C31.0218 0.00302616 31.0679 0.0147311 31.1323 0.0235098H31.133Z" fill="black" fill-opacity="0.2"/>
<path d="M31.133 0.0235098C24.3062 3.70837 19.9962 9.28432 18.1832 16.8113C18.1832 16.744 18.1832 16.6767 18.1832 16.6094C18.1832 14.7995 18.1729 12.9897 18.1876 11.1798C18.1978 9.87688 18.2768 8.57617 18.4692 7.28497C18.8694 4.60307 19.9266 2.2138 21.6694 0.133244C21.7265 0.0652087 21.8391 0.00814707 21.9262 0.00814707C24.9427 0.00156304 27.9599 0.0022946 30.9765 0.00302616C31.0218 0.00302616 31.0679 0.0147311 31.1323 0.0235098H31.133Z" fill="black" fill-opacity="0.2"/>
<path d="M31.133 0.0235098C24.3062 3.70837 19.9962 9.28432 18.1832 16.8113C18.1832 16.744 18.1832 16.6767 18.1832 16.6094C18.1832 14.7995 18.1729 12.9897 18.1876 11.1798C18.1978 9.87688 18.2768 8.57617 18.4692 7.28497C18.8694 4.60307 19.9266 2.2138 21.6694 0.133244C21.7265 0.0652087 21.8391 0.00814707 21.9262 0.00814707C24.9427 0.00156304 27.9599 0.0022946 30.9765 0.00302616C31.0218 0.00302616 31.0679 0.0147311 31.1323 0.0235098H31.133Z" fill="black" fill-opacity="0.2"/>
<path d="M31.133 0.0235098C24.3062 3.70837 19.9962 9.28432 18.1832 16.8113C18.1832 16.744 18.1832 16.6767 18.1832 16.6094C18.1832 14.7995 18.1729 12.9897 18.1876 11.1798C18.1978 9.87688 18.2768 8.57617 18.4692 7.28497C18.8694 4.60307 19.9266 2.2138 21.6694 0.133244C21.7265 0.0652087 21.8391 0.00814707 21.9262 0.00814707C24.9427 0.00156304 27.9599 0.0022946 30.9765 0.00302616C31.0218 0.00302616 31.0679 0.0147311 31.1323 0.0235098H31.133Z" fill="black" fill-opacity="0.2"/>
<path d="M31.133 0.0235098C24.3062 3.70837 19.9962 9.28432 18.1832 16.8113C18.1832 16.744 18.1832 16.6767 18.1832 16.6094C18.1832 14.7995 18.1729 12.9897 18.1876 11.1798C18.1978 9.87688 18.2768 8.57617 18.4692 7.28497C18.8694 4.60307 19.9266 2.2138 21.6694 0.133244C21.7265 0.0652087 21.8391 0.00814707 21.9262 0.00814707C24.9427 0.00156304 27.9599 0.0022946 30.9765 0.00302616C31.0218 0.00302616 31.0679 0.0147311 31.1323 0.0235098H31.133Z" fill="black" fill-opacity="0.2"/>
<path d="M31.133 0.0235098C24.3062 3.70837 19.9962 9.28432 18.1832 16.8113C18.1832 16.744 18.1832 16.6767 18.1832 16.6094C18.1832 14.7995 18.1729 12.9897 18.1876 11.1798C18.1978 9.87688 18.2768 8.57617 18.4692 7.28497C18.8694 4.60307 19.9266 2.2138 21.6694 0.133244C21.7265 0.0652087 21.8391 0.00814707 21.9262 0.00814707C24.9427 0.00156304 27.9599 0.0022946 30.9765 0.00302616C31.0218 0.00302616 31.0679 0.0147311 31.1323 0.0235098H31.133Z" fill="black" fill-opacity="0.2"/>
<path d="M31.133 0.0235098C24.3062 3.70837 19.9962 9.28432 18.1832 16.8113C18.1832 16.744 18.1832 16.6767 18.1832 16.6094C18.1832 14.7995 18.1729 12.9897 18.1876 11.1798C18.1978 9.87688 18.2768 8.57617 18.4692 7.28497C18.8694 4.60307 19.9266 2.2138 21.6694 0.133244C21.7265 0.0652087 21.8391 0.00814707 21.9262 0.00814707C24.9427 0.00156304 27.9599 0.0022946 30.9765 0.00302616C31.0218 0.00302616 31.0679 0.0147311 31.1323 0.0235098H31.133Z" fill="black" fill-opacity="0.2"/>
<path d="M19.9076 18.3994C20.5983 16.6129 21.5933 15.0108 22.8985 13.6026C25.1439 11.1804 27.8904 9.6485 31.1527 8.9762V19.161C31.0357 19.0081 30.945 18.8866 30.8498 18.7674C29.9887 17.6839 28.8891 16.978 27.5326 16.6868C26.5296 16.471 25.5192 16.4425 24.5008 16.5691C22.8502 16.7754 21.3672 17.3855 20.0371 18.3782C20.01 18.3987 19.9786 18.4133 19.9493 18.4309C19.9354 18.4199 19.9215 18.4089 19.9076 18.398V18.3994Z" fill="#00481D"/>
<path d="M19.9076 18.3994C20.5983 16.6129 21.5933 15.0108 22.8985 13.6026C25.1439 11.1804 27.8904 9.6485 31.1527 8.9762V19.161C31.0357 19.0081 30.945 18.8866 30.8498 18.7674C29.9887 17.6839 28.8891 16.978 27.5326 16.6868C26.5296 16.471 25.5192 16.4425 24.5008 16.5691C22.8502 16.7754 21.3672 17.3855 20.0371 18.3782C20.01 18.3987 19.9786 18.4133 19.9493 18.4309C19.9354 18.4199 19.9215 18.4089 19.9076 18.398V18.3994Z" fill="black" fill-opacity="0.2"/>
<path d="M19.9076 18.3994C20.5983 16.6129 21.5933 15.0108 22.8985 13.6026C25.1439 11.1804 27.8904 9.6485 31.1527 8.9762V19.161C31.0357 19.0081 30.945 18.8866 30.8498 18.7674C29.9887 17.6839 28.8891 16.978 27.5326 16.6868C26.5296 16.471 25.5192 16.4425 24.5008 16.5691C22.8502 16.7754 21.3672 17.3855 20.0371 18.3782C20.01 18.3987 19.9786 18.4133 19.9493 18.4309C19.9354 18.4199 19.9215 18.4089 19.9076 18.398V18.3994Z" fill="black" fill-opacity="0.2"/>
<path d="M19.9076 18.3994C20.5983 16.6129 21.5933 15.0108 22.8985 13.6026C25.1439 11.1804 27.8904 9.6485 31.1527 8.9762V19.161C31.0357 19.0081 30.945 18.8866 30.8498 18.7674C29.9887 17.6839 28.8891 16.978 27.5326 16.6868C26.5296 16.471 25.5192 16.4425 24.5008 16.5691C22.8502 16.7754 21.3672 17.3855 20.0371 18.3782C20.01 18.3987 19.9786 18.4133 19.9493 18.4309C19.9354 18.4199 19.9215 18.4089 19.9076 18.398V18.3994Z" fill="black" fill-opacity="0.2"/>
<path d="M19.9076 18.3994C20.5983 16.6129 21.5933 15.0108 22.8985 13.6026C25.1439 11.1804 27.8904 9.6485 31.1527 8.9762V19.161C31.0357 19.0081 30.945 18.8866 30.8498 18.7674C29.9887 17.6839 28.8891 16.978 27.5326 16.6868C26.5296 16.471 25.5192 16.4425 24.5008 16.5691C22.8502 16.7754 21.3672 17.3855 20.0371 18.3782C20.01 18.3987 19.9786 18.4133 19.9493 18.4309C19.9354 18.4199 19.9215 18.4089 19.9076 18.398V18.3994Z" fill="black" fill-opacity="0.2"/>
<path d="M19.9076 18.3994C20.5983 16.6129 21.5933 15.0108 22.8985 13.6026C25.1439 11.1804 27.8904 9.6485 31.1527 8.9762V19.161C31.0357 19.0081 30.945 18.8866 30.8498 18.7674C29.9887 17.6839 28.8891 16.978 27.5326 16.6868C26.5296 16.471 25.5192 16.4425 24.5008 16.5691C22.8502 16.7754 21.3672 17.3855 20.0371 18.3782C20.01 18.3987 19.9786 18.4133 19.9493 18.4309C19.9354 18.4199 19.9215 18.4089 19.9076 18.398V18.3994Z" fill="black" fill-opacity="0.2"/>
<path d="M19.9076 18.3994C20.5983 16.6129 21.5933 15.0108 22.8985 13.6026C25.1439 11.1804 27.8904 9.6485 31.1527 8.9762V19.161C31.0357 19.0081 30.945 18.8866 30.8498 18.7674C29.9887 17.6839 28.8891 16.978 27.5326 16.6868C26.5296 16.471 25.5192 16.4425 24.5008 16.5691C22.8502 16.7754 21.3672 17.3855 20.0371 18.3782C20.01 18.3987 19.9786 18.4133 19.9493 18.4309C19.9354 18.4199 19.9215 18.4089 19.9076 18.398V18.3994Z" fill="black" fill-opacity="0.2"/>
<path d="M19.9076 18.3994C20.5983 16.6129 21.5933 15.0108 22.8985 13.6026C25.1439 11.1804 27.8904 9.6485 31.1527 8.9762V19.161C31.0357 19.0081 30.945 18.8866 30.8498 18.7674C29.9887 17.6839 28.8891 16.978 27.5326 16.6868C26.5296 16.471 25.5192 16.4425 24.5008 16.5691C22.8502 16.7754 21.3672 17.3855 20.0371 18.3782C20.01 18.3987 19.9786 18.4133 19.9493 18.4309C19.9354 18.4199 19.9215 18.4089 19.9076 18.398V18.3994Z" fill="black" fill-opacity="0.2"/>
<path d="M19.9076 18.3994C20.5983 16.6129 21.5933 15.0108 22.8985 13.6026C25.1439 11.1804 27.8904 9.6485 31.1527 8.9762V19.161C31.0357 19.0081 30.945 18.8866 30.8498 18.7674C29.9887 17.6839 28.8891 16.978 27.5326 16.6868C26.5296 16.471 25.5192 16.4425 24.5008 16.5691C22.8502 16.7754 21.3672 17.3855 20.0371 18.3782C20.01 18.3987 19.9786 18.4133 19.9493 18.4309C19.9354 18.4199 19.9215 18.4089 19.9076 18.398V18.3994Z" fill="black" fill-opacity="0.2"/>
<path d="M19.9076 18.3994C20.5983 16.6129 21.5933 15.0108 22.8985 13.6026C25.1439 11.1804 27.8904 9.6485 31.1527 8.9762V19.161C31.0357 19.0081 30.945 18.8866 30.8498 18.7674C29.9887 17.6839 28.8891 16.978 27.5326 16.6868C26.5296 16.471 25.5192 16.4425 24.5008 16.5691C22.8502 16.7754 21.3672 17.3855 20.0371 18.3782C20.01 18.3987 19.9786 18.4133 19.9493 18.4309C19.9354 18.4199 19.9215 18.4089 19.9076 18.398V18.3994Z" fill="black" fill-opacity="0.2"/>
<path d="M19.9076 18.3994C20.5983 16.6129 21.5933 15.0108 22.8985 13.6026C25.1439 11.1804 27.8904 9.6485 31.1527 8.9762V19.161C31.0357 19.0081 30.945 18.8866 30.8498 18.7674C29.9887 17.6839 28.8891 16.978 27.5326 16.6868C26.5296 16.471 25.5192 16.4425 24.5008 16.5691C22.8502 16.7754 21.3672 17.3855 20.0371 18.3782C20.01 18.3987 19.9786 18.4133 19.9493 18.4309C19.9354 18.4199 19.9215 18.4089 19.9076 18.398V18.3994Z" fill="black" fill-opacity="0.2"/>
<path d="M12.0499 18.4333C11.8055 18.2679 11.5655 18.0975 11.3168 17.9395C10.3737 17.3374 9.3509 16.9299 8.25711 16.6951C7.30819 16.4917 6.35049 16.4478 5.38693 16.5363C3.77515 16.6848 2.39603 17.3154 1.32126 18.5503C1.1625 18.7325 1.02203 18.9314 0.846436 19.1575V8.98517C1.79975 9.16367 2.72087 9.43654 3.61273 9.80159C6.42072 10.9509 8.69243 12.7746 10.4257 15.2634C11.1075 16.2422 11.668 17.2862 12.0857 18.4033L12.0484 18.4325L12.0499 18.4333Z" fill="#00481D"/>
<path d="M12.0499 18.4333C11.8055 18.2679 11.5655 18.0975 11.3168 17.9395C10.3737 17.3374 9.3509 16.9299 8.25711 16.6951C7.30819 16.4917 6.35049 16.4478 5.38693 16.5363C3.77515 16.6848 2.39603 17.3154 1.32126 18.5503C1.1625 18.7325 1.02203 18.9314 0.846436 19.1575V8.98517C1.79975 9.16367 2.72087 9.43654 3.61273 9.80159C6.42072 10.9509 8.69243 12.7746 10.4257 15.2634C11.1075 16.2422 11.668 17.2862 12.0857 18.4033L12.0484 18.4325L12.0499 18.4333Z" fill="black" fill-opacity="0.2"/>
<path d="M12.0499 18.4333C11.8055 18.2679 11.5655 18.0975 11.3168 17.9395C10.3737 17.3374 9.3509 16.9299 8.25711 16.6951C7.30819 16.4917 6.35049 16.4478 5.38693 16.5363C3.77515 16.6848 2.39603 17.3154 1.32126 18.5503C1.1625 18.7325 1.02203 18.9314 0.846436 19.1575V8.98517C1.79975 9.16367 2.72087 9.43654 3.61273 9.80159C6.42072 10.9509 8.69243 12.7746 10.4257 15.2634C11.1075 16.2422 11.668 17.2862 12.0857 18.4033L12.0484 18.4325L12.0499 18.4333Z" fill="black" fill-opacity="0.2"/>
<path d="M12.0499 18.4333C11.8055 18.2679 11.5655 18.0975 11.3168 17.9395C10.3737 17.3374 9.3509 16.9299 8.25711 16.6951C7.30819 16.4917 6.35049 16.4478 5.38693 16.5363C3.77515 16.6848 2.39603 17.3154 1.32126 18.5503C1.1625 18.7325 1.02203 18.9314 0.846436 19.1575V8.98517C1.79975 9.16367 2.72087 9.43654 3.61273 9.80159C6.42072 10.9509 8.69243 12.7746 10.4257 15.2634C11.1075 16.2422 11.668 17.2862 12.0857 18.4033L12.0484 18.4325L12.0499 18.4333Z" fill="black" fill-opacity="0.2"/>
<path d="M12.0499 18.4333C11.8055 18.2679 11.5655 18.0975 11.3168 17.9395C10.3737 17.3374 9.3509 16.9299 8.25711 16.6951C7.30819 16.4917 6.35049 16.4478 5.38693 16.5363C3.77515 16.6848 2.39603 17.3154 1.32126 18.5503C1.1625 18.7325 1.02203 18.9314 0.846436 19.1575V8.98517C1.79975 9.16367 2.72087 9.43654 3.61273 9.80159C6.42072 10.9509 8.69243 12.7746 10.4257 15.2634C11.1075 16.2422 11.668 17.2862 12.0857 18.4033L12.0484 18.4325L12.0499 18.4333Z" fill="black" fill-opacity="0.2"/>
<path d="M12.0499 18.4333C11.8055 18.2679 11.5655 18.0975 11.3168 17.9395C10.3737 17.3374 9.3509 16.9299 8.25711 16.6951C7.30819 16.4917 6.35049 16.4478 5.38693 16.5363C3.77515 16.6848 2.39603 17.3154 1.32126 18.5503C1.1625 18.7325 1.02203 18.9314 0.846436 19.1575V8.98517C1.79975 9.16367 2.72087 9.43654 3.61273 9.80159C6.42072 10.9509 8.69243 12.7746 10.4257 15.2634C11.1075 16.2422 11.668 17.2862 12.0857 18.4033L12.0484 18.4325L12.0499 18.4333Z" fill="black" fill-opacity="0.2"/>
<path d="M12.0499 18.4333C11.8055 18.2679 11.5655 18.0975 11.3168 17.9395C10.3737 17.3374 9.3509 16.9299 8.25711 16.6951C7.30819 16.4917 6.35049 16.4478 5.38693 16.5363C3.77515 16.6848 2.39603 17.3154 1.32126 18.5503C1.1625 18.7325 1.02203 18.9314 0.846436 19.1575V8.98517C1.79975 9.16367 2.72087 9.43654 3.61273 9.80159C6.42072 10.9509 8.69243 12.7746 10.4257 15.2634C11.1075 16.2422 11.668 17.2862 12.0857 18.4033L12.0484 18.4325L12.0499 18.4333Z" fill="black" fill-opacity="0.2"/>
<path d="M12.0499 18.4333C11.8055 18.2679 11.5655 18.0975 11.3168 17.9395C10.3737 17.3374 9.3509 16.9299 8.25711 16.6951C7.30819 16.4917 6.35049 16.4478 5.38693 16.5363C3.77515 16.6848 2.39603 17.3154 1.32126 18.5503C1.1625 18.7325 1.02203 18.9314 0.846436 19.1575V8.98517C1.79975 9.16367 2.72087 9.43654 3.61273 9.80159C6.42072 10.9509 8.69243 12.7746 10.4257 15.2634C11.1075 16.2422 11.668 17.2862 12.0857 18.4033L12.0484 18.4325L12.0499 18.4333Z" fill="black" fill-opacity="0.2"/>
<path d="M12.0499 18.4333C11.8055 18.2679 11.5655 18.0975 11.3168 17.9395C10.3737 17.3374 9.3509 16.9299 8.25711 16.6951C7.30819 16.4917 6.35049 16.4478 5.38693 16.5363C3.77515 16.6848 2.39603 17.3154 1.32126 18.5503C1.1625 18.7325 1.02203 18.9314 0.846436 19.1575V8.98517C1.79975 9.16367 2.72087 9.43654 3.61273 9.80159C6.42072 10.9509 8.69243 12.7746 10.4257 15.2634C11.1075 16.2422 11.668 17.2862 12.0857 18.4033L12.0484 18.4325L12.0499 18.4333Z" fill="black" fill-opacity="0.2"/>
<path d="M12.0499 18.4333C11.8055 18.2679 11.5655 18.0975 11.3168 17.9395C10.3737 17.3374 9.3509 16.9299 8.25711 16.6951C7.30819 16.4917 6.35049 16.4478 5.38693 16.5363C3.77515 16.6848 2.39603 17.3154 1.32126 18.5503C1.1625 18.7325 1.02203 18.9314 0.846436 19.1575V8.98517C1.79975 9.16367 2.72087 9.43654 3.61273 9.80159C6.42072 10.9509 8.69243 12.7746 10.4257 15.2634C11.1075 16.2422 11.668 17.2862 12.0857 18.4033L12.0484 18.4325L12.0499 18.4333Z" fill="black" fill-opacity="0.2"/>
<path d="M12.0499 18.4333C11.8055 18.2679 11.5655 18.0975 11.3168 17.9395C10.3737 17.3374 9.3509 16.9299 8.25711 16.6951C7.30819 16.4917 6.35049 16.4478 5.38693 16.5363C3.77515 16.6848 2.39603 17.3154 1.32126 18.5503C1.1625 18.7325 1.02203 18.9314 0.846436 19.1575V8.98517C1.79975 9.16367 2.72087 9.43654 3.61273 9.80159C6.42072 10.9509 8.69243 12.7746 10.4257 15.2634C11.1075 16.2422 11.668 17.2862 12.0857 18.4033L12.0484 18.4325L12.0499 18.4333Z" fill="black" fill-opacity="0.2"/>
</g>
<defs>
<clipPath id="clip0_3324_338">
<rect width="30.3524" height="30.3524" fill="white" transform="translate(0.823853)"/>
</clipPath>
</defs>
</svg>
