<svg width="27" height="27" viewBox="0 0 27 27" fill="none" xmlns="http://www.w3.org/2000/svg">
<path d="M6.75 6.75H6.76125M6.75 20.25H6.76125M4.5 2.25H22.5C23.7426 2.25 24.75 3.25736 24.75 4.5V9C24.75 10.2426 23.7426 11.25 22.5 11.25H4.5C3.25736 11.25 2.25 10.2426 2.25 9V4.5C2.25 3.25736 3.25736 2.25 4.5 2.25ZM4.5 15.75H22.5C23.7426 15.75 24.75 16.7574 24.75 18V22.5C24.75 23.7426 23.7426 24.75 22.5 24.75H4.5C3.25736 24.75 2.25 23.7426 2.25 22.5V18C2.25 16.7574 3.25736 15.75 4.5 15.75Z" stroke="#1873DE" stroke-width="2.1875" stroke-linecap="round" stroke-linejoin="round"/>
</svg>
