<svg width="15" height="15" viewBox="0 0 15 15" fill="none" xmlns="http://www.w3.org/2000/svg">
<g clip-path="url(#clip0_1_995)">
<path d="M9.0387 6.23881L6.03536 9.24215M6.03536 6.23881L9.0387 9.24215M12.3424 8.34115C12.3424 11.3445 10.24 12.8462 7.74125 13.7171C7.61041 13.7615 7.46827 13.7593 7.33881 13.7111C4.83402 12.8462 2.73169 11.3445 2.73169 8.34115V4.13647C2.73169 3.97717 2.79497 3.82439 2.90762 3.71174C3.02027 3.59909 3.17305 3.53581 3.33236 3.53581C4.53369 3.53581 6.03536 2.81501 7.08052 1.90199C7.20777 1.79327 7.36965 1.73353 7.53703 1.73353C7.7044 1.73353 7.86628 1.79327 7.99354 1.90199C9.0447 2.82101 10.5404 3.53581 11.7417 3.53581C11.901 3.53581 12.0538 3.59909 12.1664 3.71174C12.2791 3.82439 12.3424 3.97717 12.3424 4.13647V8.34115Z" stroke="#FFF8F7" stroke-width="1.09566" stroke-linecap="round" stroke-linejoin="round"/>
</g>
<defs>
<clipPath id="clip0_1_995">
<rect width="14.416" height="14.416" fill="white" transform="translate(0.329102 0.531494)"/>
</clipPath>
</defs>
</svg>
