<svg width="20" height="20" viewBox="0 0 20 20" fill="none" xmlns="http://www.w3.org/2000/svg">
<g clip-path="url(#clip0_1_982)">
<path d="M5.20361 5.12551H5.21182M5.20361 14.9693H5.21182M3.56299 1.84426H16.688C17.5941 1.84426 18.3286 2.57879 18.3286 3.48488V6.76613C18.3286 7.67222 17.5941 8.40676 16.688 8.40676H3.56299C2.6569 8.40676 1.92236 7.67222 1.92236 6.76613V3.48488C1.92236 2.57879 2.6569 1.84426 3.56299 1.84426ZM3.56299 11.688H16.688C17.5941 11.688 18.3286 12.4225 18.3286 13.3286V16.6099C18.3286 17.516 17.5941 18.2505 16.688 18.2505H3.56299C2.6569 18.2505 1.92236 17.516 1.92236 16.6099V13.3286C1.92236 12.4225 2.6569 11.688 3.56299 11.688Z" stroke="#1873DE" stroke-width="1.64062" stroke-linecap="round" stroke-linejoin="round"/>
</g>
<defs>
<clipPath id="clip0_1_982">
<rect width="19.6875" height="19.6875" fill="white" transform="translate(0.281982 0.203867)"/>
</clipPath>
</defs>
</svg>
