<svg width="27" height="22" viewBox="0 0 27 22" fill="none" xmlns="http://www.w3.org/2000/svg">
<path d="M6.6438 5.49794H6.65488M6.6438 16.4979H6.65488M4.42887 1.83127H22.1483C23.3716 1.83127 24.3633 2.65208 24.3633 3.6646V7.33127C24.3633 8.34379 23.3716 9.1646 22.1483 9.1646H4.42887C3.2056 9.1646 2.21394 8.34379 2.21394 7.33127V3.6646C2.21394 2.65208 3.2056 1.83127 4.42887 1.83127ZM4.42887 12.8313H22.1483C23.3716 12.8313 24.3633 13.6521 24.3633 14.6646V18.3313C24.3633 19.3438 23.3716 20.1646 22.1483 20.1646H4.42887C3.2056 20.1646 2.21394 19.3438 2.21394 18.3313V14.6646C2.21394 13.6521 3.2056 12.8313 4.42887 12.8313Z" stroke="#1873DE" stroke-width="1.81062" stroke-linecap="round" stroke-linejoin="round"/>
</svg>
