<svg width="15" height="17" viewBox="0 0 15 17" fill="none" xmlns="http://www.w3.org/2000/svg">
<path d="M9.06225 6.43426L5.93726 9.81968M5.93726 6.43426L9.06225 9.81968M12.4998 8.80406C12.4998 12.1895 10.3123 13.8822 7.71225 14.864C7.57611 14.9139 7.42822 14.9115 7.2935 14.8572C4.68726 13.8822 2.49976 12.1895 2.49976 8.80406V4.06447C2.49976 3.8849 2.5656 3.71268 2.68281 3.5857C2.80002 3.45872 2.959 3.38739 3.12476 3.38739C4.37476 3.38739 5.93725 2.57489 7.02475 1.54572C7.15716 1.42317 7.3256 1.35583 7.49975 1.35583C7.67391 1.35583 7.84235 1.42317 7.97476 1.54572C9.0685 2.58166 10.6248 3.38739 11.8748 3.38739C12.0405 3.38739 12.1995 3.45872 12.3167 3.5857C12.4339 3.71268 12.4998 3.8849 12.4998 4.06447V8.80406Z" stroke="#FFF8F7" stroke-width="0.739568" stroke-linecap="round" stroke-linejoin="round"/>
</svg>
