<svg width="23" height="23" viewBox="0 0 23 23" fill="none" xmlns="http://www.w3.org/2000/svg">
<g clip-path="url(#clip0_1_817)">
<path d="M5.74996 5.74996H5.75955M5.74996 17.2499H5.75955M3.8333 1.91665H19.1666C20.2251 1.91665 21.0832 2.77476 21.0832 3.8333V7.66662C21.0832 8.72516 20.2251 9.58328 19.1666 9.58328H3.8333C2.77476 9.58328 1.91665 8.72516 1.91665 7.66662V3.8333C1.91665 2.77476 2.77476 1.91665 3.8333 1.91665ZM3.8333 13.4166H19.1666C20.2251 13.4166 21.0832 14.2747 21.0832 15.3333V19.1666C21.0832 20.2251 20.2251 21.0832 19.1666 21.0832H3.8333C2.77476 21.0832 1.91665 20.2251 1.91665 19.1666V15.3333C1.91665 14.2747 2.77476 13.4166 3.8333 13.4166Z" stroke="#3994FF" stroke-width="2.1875" stroke-linecap="round" stroke-linejoin="round"/>
</g>
<defs>
<clipPath id="clip0_1_817">
<rect width="22.3214" height="22.3214" fill="white" transform="scale(1.0304)"/>
</clipPath>
</defs>
</svg>
