<svg width="14" height="14" viewBox="0 0 14 14" fill="none" xmlns="http://www.w3.org/2000/svg">
<path d="M7.12575 6.68931e-07H10.7635C11.1735 -1.32388e-05 11.527 -2.52918e-05 11.8182 0.0237807C12.1257 0.0489157 12.4313 0.104412 12.7255 0.254319C13.1637 0.477594 13.5217 0.833965 13.7458 1.27385C13.8957 1.568 13.9511 1.87371 13.9762 2.18086C14 2.4719 14 2.82512 14 3.23431V10.7661C14 11.1752 14 11.5283 13.9762 11.8192C13.9511 12.1264 13.8957 12.4318 13.7458 12.7259C13.5219 13.1653 13.1642 13.5223 12.7255 13.7458C12.4315 13.8957 12.126 13.9511 11.8189 13.9762C11.528 14 11.1749 14 10.7657 14H7.12319C6.71401 14 6.36078 14 6.06975 13.9762C5.7626 13.9511 5.45689 13.8957 5.16274 13.7458C4.72301 13.5218 4.36656 13.164 4.14321 12.7257C3.99328 12.4314 3.9378 12.1257 3.91267 11.8182C3.88886 11.527 3.88887 11.1733 3.88889 10.7633L3.88889 10.6944C3.88889 10.2649 4.23711 9.91667 4.66667 9.91667C5.09622 9.91667 5.44444 10.2649 5.44444 10.6944V10.7333C5.44444 11.1818 5.44505 11.4712 5.46305 11.6915C5.48031 11.9027 5.5096 11.981 5.52922 12.0195C5.60413 12.1665 5.72328 12.2856 5.86895 12.3598C5.90723 12.3793 5.98542 12.4086 6.19645 12.4259C6.41651 12.4438 6.70558 12.4444 7.15315 12.4444H10.7357C11.1833 12.4444 11.4722 12.4438 11.6921 12.4259C11.9028 12.4086 11.9809 12.3794 12.0193 12.3598C12.1661 12.2851 12.2855 12.1656 12.3598 12.0197C12.3794 11.9813 12.4086 11.9032 12.4259 11.6925C12.4438 11.4726 12.4444 11.1837 12.4444 10.7361V3.26426C12.4444 2.81669 12.4438 2.52762 12.4259 2.30756C12.4086 2.09653 12.3793 2.01834 12.3598 1.98006C12.2857 1.83455 12.1665 1.71533 12.0193 1.64033C11.9808 1.62069 11.9025 1.59142 11.6915 1.57416C11.4713 1.55616 11.1819 1.55556 10.7335 1.55556H7.15571C6.70728 1.55556 6.41764 1.55616 6.19718 1.57417C5.98574 1.59144 5.90736 1.62076 5.86895 1.64033C5.7226 1.7149 5.60379 1.83371 5.52922 1.98006C5.50965 2.01847 5.48033 2.09685 5.46306 2.30829C5.44505 2.52876 5.44444 2.8184 5.44444 3.26682V3.30446C5.44444 3.73401 5.09622 4.08224 4.66667 4.08224C4.23711 4.08224 3.88889 3.73401 3.88889 3.30446L3.88889 3.23686C3.88887 2.82683 3.88886 2.47306 3.91266 2.18166C3.93778 1.87415 3.99323 1.56819 4.14321 1.27385C4.36691 0.834806 4.72369 0.478024 5.16274 0.25432C5.45708 0.104345 5.76303 0.0488926 6.07054 0.0237761C6.36195 -2.51991e-05 6.71573 -1.32388e-05 7.12575 6.68931e-07Z" fill="#333333"/>
<path d="M6.45003 4.1167C6.75377 3.81296 7.24623 3.81296 7.54997 4.1167L9.8833 6.45003C10.187 6.75377 10.187 7.24623 9.8833 7.54997L7.54997 9.88331C7.24623 10.187 6.75377 10.187 6.45003 9.88331C6.14629 9.57957 6.14629 9.08711 6.45003 8.78336L7.45561 7.77778H0.777778C0.348223 7.77778 0 7.42956 0 7C0 6.57045 0.348223 6.22222 0.777778 6.22222H7.45561L6.45003 5.21664C6.14629 4.9129 6.14629 4.42044 6.45003 4.1167Z" fill="#333333"/>
</svg>
