<svg width="25" height="26" viewBox="0 0 25 26" fill="none" xmlns="http://www.w3.org/2000/svg">
<path d="M0 12.8401C0 5.93653 5.59644 0.340088 12.5 0.340088C19.4036 0.340088 25 5.93653 25 12.8401C25 19.7436 19.4036 25.3401 12.5 25.3401C5.59644 25.3401 0 19.7436 0 12.8401Z" fill="#FF9500"/>
<g clip-path="url(#clip0_3255_4049)">
<path d="M14.2356 10.8224L10.7634 14.584M10.7634 10.8224L14.2356 14.584M18.0551 13.4555C18.0551 17.2171 15.6245 19.0979 12.7356 20.1887C12.5844 20.2442 12.42 20.2416 12.2704 20.1812C9.37452 19.0979 6.94397 17.2171 6.94397 13.4555V8.18929C6.94397 7.98976 7.01713 7.7984 7.14737 7.65732C7.2776 7.51623 7.45424 7.43697 7.63841 7.43697C9.0273 7.43697 10.7634 6.53419 11.9717 5.39067C12.1189 5.2545 12.306 5.17969 12.4995 5.17969C12.693 5.17969 12.8802 5.2545 13.0273 5.39067C14.2426 6.54172 15.9717 7.43697 17.3606 7.43697C17.5448 7.43697 17.7214 7.51623 17.8517 7.65732C17.9819 7.7984 18.0551 7.98976 18.0551 8.18929V13.4555Z" stroke="#FFF8F7" stroke-width="1.46" stroke-linecap="round" stroke-linejoin="round"/>
</g>
<defs>
<clipPath id="clip0_3255_4049">
<rect width="17.5" height="17.5" fill="white" transform="translate(3.75 4.09009)"/>
</clipPath>
</defs>
</svg>
