<svg width="25" height="26" viewBox="0 0 25 26" fill="none" xmlns="http://www.w3.org/2000/svg">
<path d="M0 12.8401C0 5.93653 5.59644 0.340088 12.5 0.340088C19.4036 0.340088 25 5.93653 25 12.8401C25 19.7436 19.4036 25.3401 12.5 25.3401C5.59644 25.3401 0 19.7436 0 12.8401Z" fill="#02983E"/>
<g clip-path="url(#clip0_3255_4050)">
<path d="M14.2764 11.4336L12.2596 14.4684L10.8969 13.5712M18.3335 13.5712C18.3335 17.217 15.7815 19.04 12.7481 20.0973C12.5893 20.1511 12.4167 20.1485 12.2596 20.09C9.21895 19.04 6.66687 17.217 6.66687 13.5712V8.46704C6.66687 8.27366 6.74369 8.08819 6.88044 7.95144C7.01718 7.8147 7.20265 7.73788 7.39604 7.73788C8.85437 7.73788 10.6773 6.86288 11.946 5.75454C12.1005 5.62256 12.297 5.55005 12.5002 5.55005C12.7034 5.55005 12.8999 5.62256 13.0544 5.75454C14.3304 6.87017 16.146 7.73788 17.6044 7.73788C17.7978 7.73788 17.9832 7.8147 18.12 7.95144C18.2567 8.08819 18.3335 8.27366 18.3335 8.46704V13.5712Z" stroke="#FFF8F7" stroke-width="1.46434" stroke-linecap="round" stroke-linejoin="round"/>
</g>
<defs>
<clipPath id="clip0_3255_4050">
<rect width="17.5" height="17.5" fill="white" transform="translate(3.75 4.09009)"/>
</clipPath>
</defs>
</svg>
